<svg width="16" height="16" viewBox="0 0 16 16" fill="none" xmlns="http://www.w3.org/2000/svg">
<path d="M4.08129 9.18148C4.08153 10.0869 3.4165 10.855 2.52032 10.9844V12.5636H13.4471V10.9844C12.5496 10.8565 11.8829 10.088 11.8829 9.18148C11.8829 8.27494 12.5496 7.50644 13.4471 7.37856V5.79938H2.52032V7.37856C3.4165 7.50791 4.08153 8.27602 4.08129 9.18148Z" fill="#52A02B"/>
<path d="M2 5.53921C2 5.47022 2.02741 5.40404 2.0762 5.35525C2.12499 5.30646 2.19116 5.27905 2.26016 5.27905H13.7073C13.7763 5.27905 13.8424 5.30646 13.8912 5.35525C13.94 5.40404 13.9674 5.47022 13.9674 5.53921V7.62051C13.9674 7.68951 13.94 7.75568 13.8912 7.80447C13.8424 7.85326 13.7763 7.88067 13.7073 7.88067C12.9889 7.88067 12.4065 8.46306 12.4065 9.18148C12.4065 9.89989 12.9889 10.4823 13.7073 10.4823C13.7763 10.4823 13.8424 10.5097 13.8912 10.5585C13.94 10.6073 13.9674 10.6734 13.9674 10.7424V12.8237C13.9674 12.8927 13.94 12.9589 13.8912 13.0077C13.8424 13.0565 13.7763 13.0839 13.7073 13.0839H2.26016C2.19116 13.0839 2.12499 13.0565 2.0762 13.0077C2.02741 12.9589 2 12.8927 2 12.8237V10.7424C2 10.6734 2.02741 10.6073 2.0762 10.5585C2.12499 10.5097 2.19116 10.4823 2.26016 10.4823C2.97858 10.4823 3.56097 9.89989 3.56097 9.18148C3.56097 8.46306 2.97858 7.88067 2.26016 7.88067C2.19116 7.88067 2.12499 7.85326 2.0762 7.80447C2.02741 7.75568 2 7.68951 2 7.62051L2 5.53921Z" fill="#F6CC1E"/>
<path d="M6.13162 4.80424C6.09441 4.66544 6.17676 4.52276 6.31556 4.48554L11.8268 3.00887C11.9656 2.97182 12.1082 3.05427 12.1453 3.19306L12.4554 4.35026C12.4926 4.48906 12.4102 4.63174 12.2714 4.66896C12.1326 4.70617 6.4498 4.98817 6.4498 4.98817C6.31152 5.02539 6.16884 4.94304 6.13162 4.80424Z" fill="#E6BB1B"/>
<path d="M9.80487 6.57986C9.80487 6.43618 9.92135 6.3197 10.065 6.3197C10.2087 6.3197 10.3252 6.43618 10.3252 6.57986V7.62051C10.3252 7.76419 10.2087 7.88067 10.065 7.88067C9.92135 7.88067 9.80487 7.76419 9.80487 7.62051V6.57986Z" fill="white"/>
<path d="M9.80487 8.66116C9.80487 8.51748 9.92135 8.401 10.065 8.401C10.2087 8.401 10.3252 8.51748 10.3252 8.66116V9.70181C10.3252 9.84549 10.2087 9.96197 10.065 9.96197C9.92135 9.96197 9.80487 9.84549 9.80487 9.70181V8.66116Z" fill="white"/>
<path d="M9.80487 10.7424C9.80487 10.5987 9.92135 10.4822 10.065 10.4822C10.2087 10.4822 10.3252 10.5987 10.3252 10.7424V11.783C10.3252 11.9267 10.2087 12.0432 10.065 12.0432C9.92135 12.0432 9.80487 11.9267 9.80487 11.783V10.7424Z" fill="white"/>
</svg>
